<svg id="Layer_1" data-name="Layer 1" xmlns="http://www.w3.org/2000/svg" viewBox="0 0 942.89 801.86"><defs><style>.cls-1{stroke:#000;stroke-miterlimit:10;stroke-width:36px;}</style></defs><path class="cls-1" d="M953.45,403.29v363c0,57-47.16,103.26-105.33,103.26H151.88c-58.17,0-105.32-46.23-105.32-103.26v-363c0-57,47.16-103.26,105.32-103.26H796.65a62.93,62.93,0,0,1,57.94,38.36c15.9,37.44,57.37,13.93,81.25,24C946.35,366.81,953.45,377.76,953.45,403.29Z" transform="translate(-28.56 -85.73)"/><path class="cls-1" d="M936.13,372.8l-.45-5.74c.43-10.93,1.14-39.08-1.14-79.71-2.58-45.9-62-57.17-62-57.17l-453.05-.71s-45.17,2.75-45.17-61.87-64.54-63.87-64.54-63.87H135.34c-61.44,0-63.47,12.17-63.47,97.44l-.6,127.64" transform="translate(-28.56 -85.73)"/></svg>