<svg id="Layer_1" data-name="Layer 1" xmlns="http://www.w3.org/2000/svg" viewBox="0 0 916.08283 911.22483"><defs><style>.cls-1{fill:#fff;}.cls-2{fill:none;stroke:#fff;stroke-linecap:round;stroke-linejoin:round;stroke-width:120px;}</style></defs><path class="cls-1" d="M324.56915,534.33717V465.89866a25.21674,25.21674,0,0,1,21.48765-24.84411q27.46641-4.26224,43.46386-16.43676,21.79917-16.58811,30.34216-49.78048,8.53278-33.17876,8.53448-109.51672,0-80.59413,7.823-116.62991,7.823-36.02557,29.63067-59.02645,21.79917-22.989,58.55325-34.13451,36.73536-11.13447,99.32267-11.14214h0a25.1268,25.1268,0,0,1,25.1268,25.12681l0,64.0935a25.06787,25.06787,0,0,1-23.76746,25.08848q-43.1191,2.06456-56.35513,12.27688-16.60086,12.80172-16.59236,55.9439,0,132.27588-16.11916,185.61212-11.82722,39.1182-45.57927,67.90775a25.14821,25.14821,0,0,0-.44338,38.20152q24.20979,20.96307,39.146,52.23984,22.51407,47.18048,22.51918,202.67937,0,36.98046,10.90724,47.88431a70.94757,70.94757,0,0,0,22.99237,15.88257q8.887,3.65912,38.89788,4.62755A25.16387,25.16387,0,0,1,648.85368,867.065l0,63.42064a25.12679,25.12679,0,0,1-25.1268,25.12681h0q-95.77032,0-129.90312-23.46726-34.13622-23.469-49.78049-54.28432-15.646-30.82472-15.646-142.70484,0-75.85029-8.06129-108.57033-8.063-32.71407-30.10386-50.01707-16.3225-12.81186-44.4748-17.4369A25.18183,25.18183,0,0,1,324.56915,534.33717Z" transform="translate(-60.0082 -44.38758)"/><path class="cls-1" d="M156.20312,955.61242H106.97843c-25.94094,0-46.97023-19.12364-46.97023-42.71385V87.10143c0-23.59021,21.02929-42.71385,46.97023-42.71385h49.22469c15.41249,0,29.09117,6.75064,37.65568,17.17788,7.31666,8.908,9.9991,22.26389,7.344,34.64434-10.74489,50.1025-10.68591,757.75957.01858,807.667,2.47376,11.5334.44327,24.10085-6.02025,32.83659C186.76672,948.11293,172.448,955.61242,156.20312,955.61242Z" transform="translate(-60.0082 -44.38758)"/><path class="cls-2" d="M916.091,722.68h-61.39a83.51593,83.51593,0,0,1-83.52-83.52V360.84a83.51593,83.51593,0,0,1,83.52-83.52h61.39" transform="translate(-60.0082 -44.38758)"/></svg>